<svg width="224" height="824" viewBox="0 0 224 824" xmlns="http://www.w3.org/2000/svg"><title>reel1</title><g fill-rule="nonzero" fill="#000"><path d="M224 672v-40c0-17.7-14.3-32-32-32H32c-17.7 0-32 14.3-32 32v40c0 17.7 14.3 32 32 32h8.5c0 .3 0 .6.1 1l23.3 95H8c-4.4 0-8 3.6-8 8v12c0 2.2 1.8 4 4 4h216c2.2 0 4-1.8 4-4v-12c0-4.4-3.6-8-8-8h-55.9l23.8-95c.1-.3.1-.6.1-1h8c17.7 0 32-14.3 32-32zM8 672v-40c0-13.2 10.8-24 24-24h160c13.2 0 24 10.8 24 24v40c0 13.2-10.8 24-24 24H32c-13.2 0-24-10.8-24-24zm120 53.4l-10 .6c-3.3 0-6 2.7-6 6s2.7 6 6 6l10 .6v5.4H96v-24h32v5.4zm26 2.6c.7.3 2 2.4 2 4s-1.3 3.7-2 4l-35.7-2H118c-1.1 0-2-.9-2-2s.9-2 2-2h.2l35.8-2zm-26-16H82v-8h60v8h-14zm88 104H8v-8h208v8zm-63.9-17c-.1.3-.1.6-.1 1H72c0-.3 0-.6-.1-1l-23.3-95H74v12c0 2.2 1.8 4 4 4h10v24c0 4.4 3.6 8 8 8h32c4.4 0 8-3.6 8-8v-5l18 1c3.3 0 6-4.7 6-8s-2.7-8-6-8l-18 1v-5h10c2.2 0 4-1.8 4-4v-12h25.9l-23.8 95z"/><path d="M112 688c17.7 0 32-14.3 32-32s-14.3-32-32-32-32 14.3-32 32 14.3 32 32 32zm0-56c13.2 0 24 10.8 24 24s-10.8 24-24 24-24-10.8-24-24 10.8-24 24-24z"/><path d="M112 647c1.1 0 2-.9 2-2v-4c0-1.1-.9-2-2-2s-2 .9-2 2v4c0 1.1.9 2 2 2zM121 656c0 1.1.9 2 2 2h4c1.1 0 2-.9 2-2s-.9-2-2-2h-4c-1.1 0-2 .9-2 2zM97 658h4c1.1 0 2-.9 2-2s-.9-2-2-2h-4c-1.1 0-2 .9-2 2s.9 2 2 2zM102.6 649.5c.4.4.9.6 1.4.6.5 0 1-.2 1.4-.6.8-.8.8-2 0-2.8l-2.8-2.8c-.8-.8-2-.8-2.8 0-.8.8-.8 2 0 2.8l2.8 2.8zM121.4 662.5c-.8-.8-2-.8-2.8 0-.8.8-.8 2 0 2.8l2.8 2.8c.4.4.9.6 1.4.6.5 0 1-.2 1.4-.6.8-.8.8-2 0-2.8l-2.8-2.8zM102.6 662.5l-2.8 2.8c-.8.8-.8 2 0 2.8.4.4.9.6 1.4.6.5 0 1-.2 1.4-.6l2.8-2.8c.8-.8.8-2 0-2.8-.7-.7-2-.7-2.8 0zM112 660c2.2 0 4-1.8 4-4 0-.4-.1-.7-.1-1l8.3-8.3c.8-.8.8-2 0-2.8-.8-.8-2-.8-2.8 0l-8.3 8.3c-.3-.1-.7-.1-1-.1-2.2 0-4 1.8-4 4-.1 2.1 1.7 3.9 3.9 3.9zM164 664h8c2.2 0 4-1.8 4-4v-8c0-2.2-1.8-4-4-4h-8c-2.2 0-4 1.8-4 4v8c0 2.2 1.8 4 4 4zm0-8h8v4h-8v-4zM188 664h8c2.2 0 4-1.8 4-4v-8c0-2.2-1.8-4-4-4h-8c-2.2 0-4 1.8-4 4v8c0 2.2 1.8 4 4 4zm0-12h8v4h-8v-4zM112 760s-8 7.6-8 12 3.6 8 8 8 8-3.6 8-8-8-12-8-12z"/><g><path d="M154.3 445.2c-.2-.8-.5-1.5-1.1-2l-7.1-7.1h3.9c2.2 0 4-1.8 4-4v-12c0-2.2-1.8-4-4-4h3.1c.6 0 1.2-.1 1.8-.4l5.2-2.6c1.2-.6 2.1-1.8 2.2-3.2l7.4-74.4c.2-2-1.1-3.8-3-4.3l-44.1-11c-.3-.1-.6-.1-1-.1h-15.1c-.3 0-.7 0-1 .1l-44.1 11c-1.9.5-3.2 2.3-3 4.3l7.4 74.4c.1 1.4 1 2.6 2.2 3.2l5.2 2.6c.6.3 1.2.4 1.8.4h3c-2.2 0-4 1.8-4 4v12c0 2.2 1.8 4 4 4h3.9l-7.1 7.1c-.6.6-.9 1.3-1.1 2l-14.8 74c-.5 2.5 1.4 4.8 3.9 4.8h102.4c2.5 0 4.4-2.3 3.9-4.8l-14.8-74zm.2-38.4l-2.4 1.2H132l7.9-75.3 21.4 5.3-6.8 68.8zM106.9 328h14.2l14.9 3.7v.1l-8 76v.2h-28v-.2l-8-76v-.1l14.9-3.7zm-31 80l-2.4-1.2-6.9-68.8 21.4-5.3 8 75.3H75.9zm2.1 24v-12h72v12H78zm50 12.1l8 71.9H92l8.7-71.9v-.1l27.3.1c0-.1 0-.1 0 0zm-46.7 3.8l3.9-3.9h11.5L88 516H67.7l13.6-68.1zM140 516v-.5l-8-71.5h10.7l3.9 3.9 13.6 68.1H140zM122 316l2-12.1-10-3.9-10 4 1.9 12zM31.2 350.1c1-1.2 2.8-1.3 4.8-.8l20.9 10.8-2.4-24.3c-.3-1.6-1.5-2.8-3-2.8H43c-.5 0-1.2.4-1.7.2l-8.8-3.5c-1.5-.6-3.1-.2-4.3.9L4 354.2c-1 1.2-1 3.2-.9 4.5l29.8 66.8c.6 1.4 2.1 2.5 4.1 2.5h14c1.9-.2 4.2-1.7 4-4v-5c-.1-1.6-2-3.3-3.5-3.8l-6.7-2.2c-1.6-.5-2.7-2.1-2.7-3.8v-7.8c0-.8-.2-1.6-.7-2.2L34.6 389c-.4-.6-.7-1.4-.7-2.1L34 373c0-.6-.4-1.3-.7-2L27 358c-.3-1.8.2-3.1 1-4l3.2-3.9z"/><path d="M199.6 342.3l-13.4-4.2c-.4-.1-.8-.2-1.2-.2h-8c-2.1 0-3.8 1.6-4 3.6l-3.7 37.2 23.5-29.5c.5-.9 1.3-1.5 2.3-1.8l4.5-1.4c1.9-.4 1.9-3.1 0-3.7z"/></g><g><path d="M219.1 220c0-.2 0-.5-.1-.7V4.6c0-2.2-1.8-4-4-4h-.5l-63 7.4H47.1c-2.4 0-4.3 2.1-4 4.5C45.2 28.3 61.6 80 75 80h48c6.6 0 14.1-12.6 20.2-27.2 44.2 37.1 39.1 109.6 32.9 147.2H39c-2.2 0-4 1.8-4 4v16c0 2.2 1.8 4 4 4h176c1.6 0 3.1-1 3.7-2.4.2-.5.4-1 .4-1.6zM122.5 72h-47c-1.8-1.1-7.3-7.2-14.3-25.4-4.4-11.3-7.8-23-9.4-30.6h94.8c-1.6 7.5-5.1 19.2-9.6 30.6-7.1 18.2-12.7 24.4-14.5 25.4zM173 216H43v-8h131.6c-.6 3.1-1.1 5.7-1.6 8zm8.1 0c3.2-14.7 8.2-43.5 6.8-74.4-.9-20-4.4-37.9-10.4-53.2-7-17.9-17.4-32.5-31.1-43.4l9.9-29.6L211 9v207h-29.9z"/><path d="M47.3 95.7c.2.1.4.2.7.2-6.4 8.4-13 23.1-13 48.1 0 32.3 3.7 42.9 6.1 46.3.7 1.1 2 1.7 3.3 1.7h108.5c1.7 0 3.3-1.1 3.8-2.7 1.5-4.4 2.4-15.8 2.4-45.3 0-23.8-6.4-38.3-12.9-46.9l8.3-7.7c1.3-1.3.4-3.4-1.4-3.4H64s-11.2-2.2-21-6c-4.4-1.7-6.5-3.5-7.4-4.9-1-1.6-3.1-2.3-4.9-1.5C22 77.2 3 88 3 112c0 22.7 8.5 43.3 13.1 52.7 1.3 2.6 4.9 3 6.7.7L26 162c1.1-1.3 1.2-3.2.3-4.6C22.8 151.9 15 136.9 15 112c0-29.2 27.3-18.4 32.3-16.3zM149.6 184H46.8c-1.4-3.7-3.8-13.9-3.8-40 0-26.5 7.8-39.8 13.5-46h79.7c6.1 6 14.7 19.3 14.7 46 .1 20.5-.4 33.9-1.3 40z"/><path d="M134.1 134.9l-12.6 1.6c-.8.1-1.7.1-2.5 0l-21.9-2.7-21.7-2.7c-.8-.1-1.7-.1-2.5 0L57.4 133c-3.7.5-6.4 2.9-6.4 5.7v10c.2 14.1 1.1 22.5 2 27.3h89.3c.3-5.3.6-13.9.6-27.7v-7.7c.1-3.5-4.2-6.3-8.8-5.7zM205 144c0-.6-.4-1-1-1h-6c0-.6 0-1.2-.1-1.9-.2-4.1-.5-8.2-.9-12.1h6c.6 0 1-.4 1-1s-.4-1-1-1h-6.2c-.5-4.8-1.2-9.5-2-14h6.3c.6 0 1-.4 1-1s-.4-1-1-1h-6.6c-.9-4.8-2.1-9.5-3.4-14h6c.6 0 1-.4 1-1s-.4-1-1-1h-6.6c-1.5-4.9-3.2-9.5-5.1-14h5.7c.6 0 1-.4 1-1s-.4-1-1-1h-6.5c-2.2-4.9-4.6-9.6-7.3-14h5.9c.6 0 1-.4 1-1s-.4-1-1-1h-7.1c-3.2-5-6.8-9.7-10.7-14h5.8c.6 0 1-.4 1-1s-.4-1-1-1h-7.7c-2-2.1-4.1-4.1-6.3-6.1-.8-.7-2.1-.7-2.8.2-.7.8-.7 2.1.2 2.8 24.2 21.5 37.5 54.2 39.5 97.4 1.2 25.9-2 50.4-5 66.3-.2 1.1.5 2.1 1.6 2.3h.4c.9 0 1.8-.7 2-1.6.8-4.5 1.7-9.7 2.4-15.4h5.7c.6 0 1-.4 1-1s-.4-1-1-1h-5.4c.6-4.4 1.1-9.1 1.5-14h5.9c.6 0 1-.4 1-1s-.4-1-1-1h-5.7c.4-4.5.6-9.2.8-14h6c.6 0 1-.4 1-1s-.4-1-1-1h-5.9c.1-4.6.1-9.3 0-14h6c.2.1.6-.3.6-.9z"/></g></g></svg>