<svg width="224" height="790" viewBox="0 0 224 790" xmlns="http://www.w3.org/2000/svg"><title>reel2</title><g fill-rule="nonzero" fill="#000"><path d="M179.3 741.8l-14.7-14.6c-.2-.2-.4-.4-.6-.5V710c0-4.4-3.6-8-8-8h-14v-53.3c0-1.7 2.1-3.5 2.5-5.1l6.3-27.8c6.3-25.3-12.8-49.8-38.9-49.8-26.1 0-44.7 24.3-38.9 49.8l6.4 27.8c.4 1.6 1.6 3.7 2.6 5.1V702H68c-4.4 0-8 3.6-8 8v16.7c-.2.1-.4.3-.6.5l-14.7 14.6c-3 3-4.7 7.1-4.7 11.3v26.6c0 5.7 4.6 10.2 10.3 10.2h123.4c5.7 0 10.3-4.6 10.3-10.2v-26.6c0-4.2-1.7-8.3-4.7-11.3zM68 710h88v16H68v-16zm108 69.8c0 1.2-1 2.2-2.3 2.2H50.3c-1.3 0-2.3-1-2.3-2.2v-26.6c0-2.1.9-4.2 2.4-5.7L63.9 734H160.1l13.5 13.5c1.5 1.5 2.4 3.6 2.4 5.7v26.6zM192 379.1V377c-.1-5-.5-8.6-1.2-12.7v-.2-.1c-.4-2.2-.9-4.4-1.4-6.6v-.1-.1c-1.1-4.1-2.5-8-4.2-11.8-1.6-3.6-3.5-7.1-5.6-10.4-2.1-3.2-4.4-6.3-6.9-9.2-2.5-2.9-5.2-5.6-8-8-2.9-2.5-6-4.8-9.2-6.9-3.3-2.1-6.8-4-10.4-5.6-3.8-1.7-7.7-3.1-11.8-4.2h-.1-.1c-2.1-.6-4.3-1-6.5-1.4-4.5-.8-9.1-1.2-13.8-1.2H111.6c-6.4 0-12.6.9-18.5 2.4-29.1 6.7-51.5 29-58.7 57.4-1.5 5.9-2.4 12.1-2.4 18.5v1c0 4.7.4 9.4 1.2 13.9.4 2.2.9 4.4 1.4 6.5v.2c1.1 4.1 2.5 8 4.2 11.8 1.6 3.6 3.5 7.1 5.6 10.4 2.1 3.2 4.4 6.3 6.9 9.2 2.5 2.9 5.2 5.6 8 8 2.9 2.5 6 4.8 9.2 6.9 3.3 2.1 6.8 4 10.4 5.6 3.8 1.7 7.8 3.1 11.8 4.2h.2c2.1.6 4.3 1 6.5 1.4 4.5.8 9.2 1.2 13.9 1.2h1.1c6.4 0 12.6-.9 18.5-2.4 28.4-7.2 50.7-29.5 57.9-57.9 2.3-5.2 3.2-11.4 3.2-17.7zm-12.7 34.2l-31.9 31.9c-3 1.6-6.1 3-9.3 4.2l45.4-45.4c-1.3 3.2-2.7 6.3-4.2 9.3zm5.5-13.5l-51 51c-2.3.7-4.6 1.3-6.9 1.7l59.6-59.6c-.4 2.3-1 4.6-1.7 6.9zm2.3-10.4l-63.7 63.7c-1.9.3-3.9.5-5.8.6l70.1-70.1c-.1 2-.3 3.9-.6 5.8zm-72.4 64.5c-.9 0-1.8.1-2.7.1-.8 0-1.7 0-2.5-.1l78.5-78.5c0 .8.1 1.7.1 2.5 0 .9 0 1.8-.1 2.7l-73.3 73.3zm-12.6-.6l85.2-85.2c.2 1.6.4 3.1.5 4.7l-81 81c-1.6-.1-3.2-.3-4.7-.5zm-6.8-1.2l90.8-90.8c.3 1.4.6 2.9.8 4.3L99.6 453c-1.4-.3-2.9-.6-4.3-.9zm-6.3-1.7l95.4-95.4c.4 1.3.8 2.7 1.2 4L93 451.6c-1.4-.4-2.7-.8-4-1.2zm-5.9-2.1l99.2-99.2c.5 1.2 1 2.5 1.4 3.7l-96.8 96.8c-1.3-.3-2.5-.8-3.8-1.3zm-5.4-2.5l102.1-102.1c.6 1.2 1.1 2.3 1.7 3.5L81.2 447.4c-1.2-.5-2.4-1.1-3.5-1.6zm-5.2-2.9l104.4-104.4c.7 1.1 1.3 2.2 1.9 3.3l-103 103c-1.1-.6-2.2-1.2-3.3-1.9zm-4.8-3.2l106-106c.7 1 1.4 2 2.1 3.1l-105 105c-1.1-.7-2.1-1.4-3.1-2.1zm-4.5-3.5l107-107c.8.9 1.6 1.9 2.3 2.9L66.1 438.5c-1-.7-2-1.5-2.9-2.3zm-4.2-3.8L166.4 325c.9.9 1.7 1.8 2.5 2.7L61.7 434.9c-.9-.8-1.8-1.6-2.7-2.5zm-3.9-4.1l107.2-107.2c.9.8 1.8 1.6 2.7 2.5L57.6 431c-.9-.9-1.7-1.8-2.5-2.7zm-3.6-4.4l106.4-106.4c1 .7 1.9 1.5 2.9 2.3l-107 107c-.8-.9-1.6-1.9-2.3-2.9zm-3.3-4.7l105-105c1 .7 2.1 1.4 3.1 2.1l-106 106c-.7-1-1.4-2-2.1-3.1zm-3-5l103-103c1.1.6 2.2 1.2 3.3 1.9L47.1 417.5c-.7-1.1-1.3-2.2-1.9-3.3zm-2.6-5.4l100.2-100.2c1.2.5 2.4 1.1 3.5 1.7l-102.1 102c-.5-1.1-1.1-2.3-1.6-3.5zm-2.3-5.7l96.8-96.8c1.3.4 2.5.9 3.7 1.4l-99.2 99.2c-.4-1.3-.9-2.5-1.3-3.8zm-1.9-6.1l92.6-92.6c1.4.3 2.7.7 4 1.2L39.6 401c-.4-1.3-.8-2.6-1.2-4zM36 378c0-.9 0-1.8.1-2.7l73.3-73.3c.9 0 1.8-.1 2.7-.1.8 0 1.7 0 2.5.1l-78.5 78.5c-.1-.8-.1-1.7-.1-2.5zm8.7-35.3l31.9-31.9c3-1.6 6.1-3 9.3-4.2L40.6 352c1.2-3.2 2.6-6.3 4.1-9.3zm-5.5 13.5l51-51c2.3-.7 4.6-1.3 6.9-1.7l-59.6 59.6c.4-2.3 1-4.6 1.7-6.9zm-2.3 10.4l63.7-63.7c1.9-.3 3.8-.5 5.8-.6l-70.1 70.1c.1-2 .3-3.9.6-5.8zm-.7 16.6l81-81c1.6.1 3.1.3 4.7.5l-85.2 85.2c-.2-1.5-.4-3.1-.5-4.7zm.8 7.2l87.4-87.4c1.5.2 2.9.5 4.3.8l-90.8 90.8c-.3-1.3-.6-2.8-.9-4.2zm32.7-75.5l-20.8 20.8c5.5-8.2 12.6-15.3 20.8-20.8zm84.6 126.2l20.8-20.8c-5.5 8.2-12.6 15.3-20.8 20.8z"/><path d="M112 266C50.1 266 0 316.1 0 378s50.1 112 112 112 112-50.1 112-112-50.1-112-112-112zm0 216C54.7 482 8 435.3 8 378s46.7-104 104-104 104 46.7 104 104-46.7 104-104 104z"/><g><path d="M200 24c0-8.8-7.2-16-16-16-3.7 0-7.2 1.3-9.9 3.5 9.6 4.4 18.4 9.2 25.9 13.7V24zM222.5 45.5c-.4-.3-.8-.6-1.3-1-.9-.7-2-1.5-3.2-2.4-.6-.4-1.2-.9-1.9-1.4C197.6 27.3 154.2 0 112.1 0h-.1C72.7 0 26.7 23.9 6.8 38c-7.5 5.3-9 17.4-3.4 23l77.4 93.2c1.5 1.8 3.7 2.8 6.1 2.8h50.5c1.2 0 2.4-.6 3.1-1.5l82.6-104.4c1.4-1.7 1.1-4.2-.6-5.6zM86.9 149L9.6 55.9c-.2-.2-.3-.4-.5-.5-.8-.8-1.2-2.5-1-4.4.2-2.7 1.5-5.1 3.4-6.4C32.2 29.9 76.1 8 112 8h.1c19.3 0 41.2 6.1 65 18.2 17.4 8.8 31 18.5 37.3 23.1L135.5 149H86.9z"/><path d="M109.1 136h-.3c-.3 0-.6.1-.7.4l-4.1 6.2c-.4.6 0 1.4.7 1.4h.3c.3 0 .6-.1.7-.4l4.1-6.2c.4-.6 0-1.4-.7-1.4zM114.1 136h-.3c-.3 0-.6.1-.7.4l-4.1 6.2c-.4.6 0 1.4.7 1.4h.3c.3 0 .6-.1.7-.4l4.1-6.2c.4-.6 0-1.4-.7-1.4zM119.1 136h-.3c-.3 0-.6.1-.7.4l-4.1 6.2c-.4.6 0 1.4.7 1.4h.3c.3 0 .6-.1.7-.4l4.1-6.2c.4-.6 0-1.4-.7-1.4zM124.1 136h-.3c-.3 0-.6.1-.7.4l-4.1 6.2c-.4.6 0 1.4.7 1.4h.3c.3 0 .6-.1.7-.4l4.1-6.2c.4-.6 0-1.4-.7-1.4zM91.3 134l-.2-.2c-.4-.5-1.1-.4-1.4.1l-3.7 5.6c-.2.3-.2.8.1 1.1l.2.2c.4.5 1.1.4 1.4-.1l3.7-5.6c.2-.4.2-.8-.1-1.1zM99.1 136h-.3c-.3 0-.6.1-.7.4l-4.1 6.2c-.4.6 0 1.4.7 1.4h.3c.3 0 .6-.1.7-.4l4.1-6.2c.4-.6 0-1.4-.7-1.4zM94.1 136h-.3c-.3 0-.6.1-.7.4l-4.1 6.2c-.4.6 0 1.4.7 1.4h.3c.3 0 .6-.1.7-.4l4.1-6.2c.4-.6 0-1.4-.7-1.4zM104.1 136h-.3c-.3 0-.6.1-.7.4l-4.1 6.2c-.4.6 0 1.4.7 1.4h.3c.3 0 .6-.1.7-.4l4.1-6.2c.4-.6 0-1.4-.7-1.4zM129.1 136h-.3c-.3 0-.6.1-.7.4l-4.1 6.2c-.4.6 0 1.4.7 1.4h.3c.3 0 .6-.1.7-.4l4.1-6.2c.4-.6 0-1.4-.7-1.4zM88.5 130.7l-.2-.2c-.4-.5-1.1-.4-1.4.1l-3.7 5.6c-.2.3-.2.8.1 1.1l.2.2c.4.5 1.1.4 1.4-.1l3.7-5.6c.2-.4.2-.8-.1-1.1zM69 107.2l-.2-.2c-.4-.5-1.1-.4-1.4.1l-3.7 5.6c-.2.3-.2.8.1 1.1l.2.2c.4.5 1.1.4 1.4-.1l3.7-5.6c.2-.4.2-.8-.1-1.1zM71.8 110.5l-.2-.2c-.4-.5-1.1-.4-1.4.1l-3.7 5.6c-.2.3-.2.8.1 1.1l.2.2c.4.5 1.1.4 1.4-.1l3.7-5.6c.2-.3.2-.8-.1-1.1zM74.6 113.9l-.2-.2c-.4-.5-1.1-.4-1.4.1l-3.7 5.6c-.2.3-.2.8.1 1.1l.2.2c.4.5 1.1.4 1.4-.1l3.7-5.6c.2-.4.2-.8-.1-1.1zM77.4 117.2l-.2-.2c-.4-.5-1.1-.4-1.4.1l-3.7 5.6c-.2.3-.2.8.1 1.1l.2.2c.4.5 1.1.4 1.4-.1l3.7-5.6c.2-.3.1-.8-.1-1.1zM57.9 93.8l-.2-.2c-.4-.5-1.1-.4-1.4.1l-3.7 5.6c-.2.3-.2.8.1 1.1l.2.2c.4.5 1.1.4 1.4-.1l3.7-5.6c.2-.4.1-.8-.1-1.1zM60.7 97.1l-.2-.2c-.4-.5-1.1-.4-1.4.1l-3.7 5.6c-.2.3-.2.8.1 1.1l.2.2c.4.5 1.1.4 1.4-.1l3.7-5.6c.1-.4.1-.8-.1-1.1zM63.5 100.5l-.2-.2c-.4-.5-1.1-.4-1.4.1l-3.7 5.6c-.2.3-.2.8.1 1.1l.2.2c.4.5 1.1.4 1.4-.1l3.7-5.6c.1-.4.1-.8-.1-1.1zM66.2 103.8l-.2-.2c-.4-.5-1.1-.4-1.4.1l-3.7 5.6c-.2.3-.2.8.1 1.1l.2.2c.4.5 1.1.4 1.4-.1l3.7-5.6c.2-.4.2-.8-.1-1.1zM80.2 120.6l-.2-.2c-.4-.5-1.1-.4-1.4.1l-3.7 5.6c-.2.3-.2.8.1 1.1l.2.2c.4.5 1.1.4 1.4-.1l3.7-5.6c.1-.4.1-.8-.1-1.1zM83 123.9l-.2-.2c-.4-.5-1.1-.4-1.4.1l-3.7 5.6c-.2.3-.2.8.1 1.1l.2.2c.4.5 1.1.4 1.4-.1L83 125c.2-.3.2-.8 0-1.1zM85.7 127.3l-.2-.2c-.4-.5-1.1-.4-1.4.1l-3.7 5.6c-.2.3-.2.8.1 1.1l.2.2c.4.5 1.1.4 1.4-.1l3.7-5.6c.2-.4.2-.8-.1-1.1zM55.1 90.4l-.2-.2c-.4-.5-1.1-.4-1.4.1l-3.7 5.6c-.2.3-.2.8.1 1.1l.2.2c.4.5 1.1.4 1.4-.1l3.7-5.6c.2-.4.2-.8-.1-1.1zM49.5 83.7l-.2-.2c-.4-.5-1.1-.4-1.4.1l-3.7 5.6c-.2.3-.2.8.1 1.1l.2.2c.4.5 1.1.4 1.4-.1l3.7-5.6c.2-.4.2-.8-.1-1.1zM52.3 87l-.2-.2c-.4-.5-1.1-.4-1.4.1L47 92.5c-.2.3-.2.8.1 1.1l.2.2c.4.5 1.1.4 1.4-.1l3.7-5.6c.2-.3.2-.8-.1-1.1zM46.7 80.3l-.2-.2c-.4-.5-1.1-.4-1.4.1l-3.7 5.6c-.2.3-.2.8.1 1.1l.2.2c.4.5 1.1.4 1.4-.1l3.7-5.6c.2-.3.2-.8-.1-1.1zM27.2 56.9l-.2-.2c-.4-.5-1.1-.4-1.4.1l-3.7 5.6c-.2.3-.2.8.1 1.1l.2.2c.4.5 1.1.4 1.4-.1l3.7-5.6c.2-.4.2-.8-.1-1.1zM30 60.2l-.2-.2c-.4-.5-1.1-.4-1.4.1l-3.7 5.6c-.2.3-.2.8.1 1.1l.2.2c.4.5 1.1.4 1.4-.1l3.7-5.6c.2-.4.2-.8-.1-1.1zM32.8 63.6l-.2-.2c-.4-.5-1.1-.4-1.4.1l-3.7 5.6c-.2.3-.2.8.1 1.1l.2.2c.4.5 1.1.4 1.4-.1l3.7-5.6c.2-.4.2-.8-.1-1.1zM35.6 66.9l-.2-.2c-.4-.5-1.1-.4-1.4.1l-3.7 5.6c-.2.3-.2.8.1 1.1l.2.2c.4.5 1.1.4 1.4-.1l3.7-5.6c.2-.4.2-.8-.1-1.1zM24.5 53.5l-.2-.2c-.4-.5-1.1-.4-1.4.1L19.2 59c-.2.3-.2.8.1 1.1l.2.2c.4.5 1.1.4 1.4-.1l3.7-5.6c.1-.4.1-.8-.1-1.1zM38.4 70.3l-.2-.2c-.4-.5-1.1-.4-1.4.1l-3.7 5.6c-.2.3-.2.8.1 1.1l.2.2c.4.5 1.1.4 1.4-.1l3.7-5.6c.2-.4.1-.8-.1-1.1zM41.2 73.6l-.2-.2c-.4-.5-1.1-.4-1.4.1l-3.7 5.6c-.2.3-.2.8.1 1.1l.2.2c.4.5 1.1.4 1.4-.1l3.7-5.6c.1-.3.1-.8-.1-1.1zM44 77l-.2-.2c-.4-.5-1.1-.4-1.4.1l-3.7 5.6c-.2.3-.2.8.1 1.1l.2.2c.4.5 1.1.4 1.4-.1L44 78c.2-.3.2-.7 0-1zM134.1 136h-.3c-.3 0-.6.1-.7.4l-4.1 6.2c-.4.6 0 1.4.7 1.4h.3c.3 0 .6-.1.7-.4l4.1-6.2c.4-.6 0-1.4-.7-1.4zM21.6 50.2l-.2-.2c-.4-.5-1.1-.4-1.4.1l-3.7 5.6c-.2.3-.2.8.1 1.1l.2.2c.4.5 1.1.4 1.4-.1l3.7-5.6c.2-.3.2-.8-.1-1.1z"/></g></g></svg>