<svg id="Ebene_1" xmlns="http://www.w3.org/2000/svg" viewBox="0 0 256 256"><style>.st0,.st1{stroke-miterlimit:10}.st0{fill:none;stroke:red}.st1{stroke:url(#SVGID_1_)}</style><path d="M200.6 43.2C190.2 35.7 177.1 32 163 32c-29 0-61.8 14.8-89 41.9-41.5 41.5-53.8 97.5-29.3 128.6.8 1 2 1.5 3.2 1.5 1 0 1.9-.4 2.7-1.1.9-.8 1.9-1.7 3-2.8 4.7-4.3 11.3-10.4 19.3-17.8 3.9-3.7 8.2-7.7 12.7-11.9 2.3-2.1 4.5-4.3 6.8-6.6 1.1-1.1 2.3-2.3 3.5-3.4 1.2-1.1 2.2-2.3 3.4-3.4.6-.6 1.1-1.2 1.7-1.7.6-.6 1.2-1.2 1.8-1.9.6-.6 1.1-1.2 1.7-1.8 0-.1.1-.1.1-.2.4-.5.9-1.1 1.3-1.6.5-.6 1-1.2 1.5-1.7.5-.6.9-1.2 1.4-1.8l1.3-1.7c.1-.1.1-.1.1-.2l1.2-1.8c1.7-2.5 3-5.2 4.4-8 1.3-2.9 2.5-5.9 3.8-9.2 2.6-6.6 5.9-14.2 10.8-20.9.6-.8 1.2-1.7 1.8-2.5.8-1.1 2-2.3 2.8-3.4.2-.2.4-.4.5-.6l2.7-2.7 1.9-1.9.1-.1.3-.3.1-.1.3-.2.5-.5 1-.9c1.4-1.2 2.7-2.4 4-3.5 2.7-2.3 5.4-4.4 8-6.5 2.6-2 5.2-4 7.8-5.9 5-3.8 9.9-7.2 14.5-10.3 4.5-3.1 8.7-5.8 12.5-8.2 3.8-2.4 7-4.4 9.8-6.1.5-.3 1-.6 1.4-.8 2.5-1.6 2.6-5.1.2-6.8zM184.9 50c0 .1-.1.1 0 0l-2.1 1.4c-3.2 2.1-6.8 4.4-10.6 7l-.4.3c-4.4 3-9.3 6.4-14.3 10.2-2.6 1.9-5.1 3.9-7.9 6l-.1.1-.6.5c-2.4 1.9-5 4-7.5 6.1-1.3 1.1-2.5 2.2-3.7 3.2l-.5.5-1 .9-.5.4-.1.1-.3.3c-.3.2-.5.4-.6.6l-.1.1-.7.8-1.1 1.1-1 1-1.6 1.6c-.2.2-.4.4-.6.7l-.2.2-.4.4c-.2.2-.3.4-.4.6-.1.2-.6.7-.9 1-.6.6-1.2 1.4-1.8 2.2l-1.4 1.8-.4.6c-5.4 7.3-8.8 15.2-11.8 22.7v.1c-1.3 3.3-2.5 6.2-3.6 8.8-1.3 2.8-2.5 5-3.8 7v.1l-1.1 1.7-1.2 1.6c-.2.3-.4.5-.6.8-.2.3-.4.5-.5.7l-1.2 1.3-.3.3-1 1.2-.2.3L97 148l-1.7 1.8-.4.4-1.3 1.3-1.5 1.5c-.6.6-1.2 1.3-1.8 1.8l-2.7 2.6-.7.7c-.6.6-1.2 1.1-1.7 1.7-1.7 1.7-3.3 3.2-5 4.8l-9.2 8.6-3.5 3.3-19 17.5C30 165.4 43.1 116.2 79.7 79.6 104.4 54.9 136 40 163 40c10.3 0 19.8 2.3 27.7 6.4-1.8 1.1-3.7 2.3-5.8 3.6zM207.7 62c18.5 28.7 5.4 77.9-31.2 114.4-24.7 24.7-55.9 39.5-83.4 39.5-10.4 0-19.9-2.2-27.8-6.4 7.2-4.5 16-10 18.7-11.9l1.1-.7c4.1-2.9 8.8-6.1 13.6-9.7l6-4.5 1.9-1.4.1-.1.8-.7c2.4-1.9 4.8-3.9 7.4-6.1l.9-.8 1.1-1 .1-.1.9-.8 1-.9.9-.8 1-.9.3-.3.1-.1.3-.3.5-.5.2-.2 1-1 1.2-1.2.9-.9.1-.1c.6-.6 1.1-1.2 1.6-1.8.4-.5.8-.9 1.1-1.2l.4-.4.4-.5c.2-.2.3-.4.4-.6l2.4-3.3c1.2-1.6 2.2-3.1 3.1-4.6.2-.3.4-.7.6-1 .6-.9 1-1.7 1.4-2.4.1-.2.2-.5.4-.7 0-.1.1-.1.1-.2.1-.3.3-.5.4-.8.3-.6.7-1.3 1.1-2.1 1.9-3.7 3.4-7.4 4.7-10.6l.1-.3v-.1c2.5-6.2 4.6-11.6 7.4-16l1.2-1.9.1-.1c0-.1.2-.3.3-.5.2-.3.4-.6.6-.8l1-1.4 1.8-2 1.4-1.6.4-.4.8-.9.5-.6c.9-1 1.8-1.9 2.7-2.8l.1-.1c4.3-4.4 8.7-8.6 13.5-13.2l5.9-5.6.6-.6h.1c1.3-1.3 2.7-2.5 4-3.7.7-.7 1.4-1.3 2.1-2l10.9-10 8.7-7.7m.6-10c-1 0-2 .4-2.7 1.1-.9.8-1.9 1.7-3 2.8-2.3 2.2-5.2 4.8-8.4 7.8s-6.9 6.4-10.9 10c-2 1.8-4.1 3.7-6.2 5.8-2.1 2-4.3 4-6.6 6.1-4.5 4.2-9.1 8.7-13.7 13.4-1.2 1.2-2.3 2.4-3.4 3.6l-.8.9-.4.5-.2.2-.1.1-.1.1s0-.1.2-.2l-.1.1c-1.1 1.3-2.2 2.5-3.3 3.8-.1.1-.2.2-.2.3l-1.1 1.6c-.4.6-.8 1.1-1.2 1.7l-1.2 1.9c-3.2 5-5.5 10.7-8.1 17.4-1.4 3.3-2.8 6.9-4.6 10.5-.4.9-1 1.8-1.4 2.7-.5.9-.9 1.8-1.5 2.7-1.1 1.7-2.2 3.5-3.4 5.1-.8 1.1-1.7 2.2-2.5 3.3-.1.2-.3.3-.4.5-1 1-1.9 2.2-2.9 3.2l-2.1 2.1-1 1-.5.5-.3.3-.2.2-.1.1-.1.1c-.7.6-1.3 1.2-1.9 1.7-.6.6-1.3 1.1-1.9 1.7-.7.6-1.4 1.2-2 1.7-2.8 2.4-5.4 4.5-8 6.6-2.7 2-5.2 4-7.8 5.9-5 3.8-9.9 7.2-14.5 10.3-3.5 2.4-17.7 11.3-24.7 15.7-2.1 1.3-.7 5.2 1.1 6.4 10.4 7.3 23.3 10.9 37.3 10.9 28.5 0 61.9-14.6 89.1-41.8 41.5-41.5 53.8-97.5 29.3-128.6-1.1-1.2-2.3-1.8-3.5-1.8z"/></svg>