<svg id="Ebene_1" xmlns="http://www.w3.org/2000/svg" viewBox="0 0 256 256"><style>.st0,.st1{stroke-miterlimit:10}.st0{fill:none;stroke:red}.st1{stroke:url(#SVGID_1_)}</style><path d="M208 129.1v-.9-1.2c-.1-5-.5-8.6-1.2-12.7v-.1-.1-.1c-.4-2.2-.9-4.4-1.4-6.6v-.1-.1c-1.1-4.1-2.5-8-4.2-11.8-1.6-3.6-3.5-7.1-5.6-10.4-2.1-3.2-4.4-6.3-6.9-9.2-2.5-2.9-5.2-5.6-8-8-2.9-2.5-6-4.8-9.2-6.9-3.3-2.1-6.8-4-10.4-5.6-3.8-1.7-7.7-3.1-11.8-4.2h-.1-.1c-2.1-.6-4.3-1-6.5-1.4-4.5-.8-9.1-1.2-13.8-1.2H127.6c-6.4 0-12.6.9-18.5 2.4-29.1 6.7-51.5 29-58.7 57.4-1.5 5.9-2.4 12.1-2.4 18.5v1c0 4.7.4 9.4 1.2 13.9.4 2.2.9 4.4 1.4 6.5v.2c1.1 4.1 2.5 8 4.2 11.8 1.6 3.6 3.5 7.1 5.6 10.4 2.1 3.2 4.4 6.3 6.9 9.2 2.5 2.9 5.2 5.6 8 8 2.9 2.5 6 4.8 9.2 6.9 3.3 2.1 6.8 4 10.4 5.6 3.8 1.7 7.8 3.1 11.8 4.2h.2c2.1.6 4.3 1 6.5 1.4 4.5.8 9.2 1.2 13.9 1.2h1.1c6.4 0 12.6-.9 18.5-2.4 28.4-7.2 50.7-29.5 57.9-57.9 2.3-5.2 3.2-11.4 3.2-17.7zm-12.7 34.2l-31.9 31.9c-3 1.6-6.1 3-9.3 4.2l45.4-45.4c-1.3 3.2-2.7 6.3-4.2 9.3zm5.5-13.5l-51 51c-2.3.7-4.6 1.3-6.9 1.7l59.6-59.6c-.4 2.3-1 4.6-1.7 6.9zm2.3-10.4l-63.7 63.7c-1.9.3-3.9.5-5.8.6l70.1-70.1c-.1 2-.3 3.9-.6 5.8zm-72.4 64.5c-.9 0-1.8.1-2.7.1-.8 0-1.7 0-2.5-.1l78.5-78.5c0 .8.1 1.7.1 2.5 0 .9 0 1.8-.1 2.7l-73.3 73.3zm-12.6-.6l85.2-85.2c.2 1.6.4 3.1.5 4.7l-81 81c-1.6-.1-3.2-.3-4.7-.5zm-6.8-1.2l90.8-90.8c.3 1.4.6 2.9.8 4.3L115.6 203c-1.4-.3-2.9-.6-4.3-.9zm-6.3-1.7l95.4-95.4c.4 1.3.8 2.7 1.2 4L109 201.6c-1.4-.4-2.7-.8-4-1.2zm-5.9-2.1l99.2-99.2c.5 1.2 1 2.5 1.4 3.7l-96.8 96.8c-1.3-.3-2.5-.8-3.8-1.3zm-5.4-2.5L195.8 93.7c.6 1.2 1.1 2.3 1.7 3.5L97.2 197.4c-1.2-.5-2.4-1.1-3.5-1.6zm-5.2-2.9L192.9 88.5c.7 1.1 1.3 2.2 1.9 3.3l-103 103c-1.1-.6-2.2-1.2-3.3-1.9zm-4.8-3.2l106-106c.7 1 1.4 2 2.1 3.1l-105 105c-1.1-.7-2.1-1.4-3.1-2.1zm-4.5-3.5l107-107c.8.9 1.6 1.9 2.3 2.9L82.1 188.5c-1-.7-2-1.5-2.9-2.3zm-4.2-3.8L182.4 75c.9.9 1.7 1.8 2.5 2.7L77.7 184.9c-.9-.8-1.8-1.6-2.7-2.5zm-3.9-4.1L178.3 71.1c.9.8 1.8 1.6 2.7 2.5L73.6 181c-.9-.9-1.7-1.8-2.5-2.7zm-3.6-4.4L173.9 67.5c1 .7 1.9 1.5 2.9 2.3l-107 107c-.8-.9-1.6-1.9-2.3-2.9zm-3.3-4.7l105-105c1 .7 2.1 1.4 3.1 2.1l-106 106c-.7-1-1.4-2-2.1-3.1zm-3-5l103-103c1.1.6 2.2 1.2 3.3 1.9L63.1 167.5c-.7-1.1-1.3-2.2-1.9-3.3zm-2.6-5.4L158.8 58.6c1.2.5 2.4 1.1 3.5 1.7l-102.1 102c-.5-1.1-1.1-2.3-1.6-3.5zm-2.3-5.7l96.8-96.8c1.3.4 2.5.9 3.7 1.4l-99.2 99.2c-.4-1.3-.9-2.5-1.3-3.8zm-1.9-6.1L147 54.4c1.4.3 2.7.7 4 1.2L55.6 151c-.4-1.3-.8-2.6-1.2-4zM52 128c0-.9 0-1.8.1-2.7L125.4 52c.9 0 1.8-.1 2.7-.1.8 0 1.7 0 2.5.1l-78.5 78.5c-.1-.8-.1-1.7-.1-2.5zm8.7-35.3l31.9-31.9c3-1.6 6.1-3 9.3-4.2L56.6 102c1.2-3.2 2.6-6.3 4.1-9.3zm-5.5 13.5l51-51c2.3-.7 4.6-1.3 6.9-1.7l-59.6 59.6c.4-2.3 1-4.6 1.7-6.9zm-2.3 10.4l63.7-63.7c1.9-.3 3.8-.5 5.8-.6l-70.1 70.1c.1-2 .3-3.9.6-5.8zm-.7 16.6l81-81c1.6.1 3.1.3 4.7.5l-85.2 85.2c-.2-1.5-.4-3.1-.5-4.7zm.8 7.2L140.4 53c1.5.2 2.9.5 4.3.8l-90.8 90.8c-.3-1.3-.6-2.8-.9-4.2zm32.7-75.5L64.9 85.7c5.5-8.2 12.6-15.3 20.8-20.8zm84.6 126.2l20.8-20.8c-5.5 8.2-12.6 15.3-20.8 20.8z"/><path d="M128 16C66.1 16 16 66.1 16 128s50.1 112 112 112 112-50.1 112-112S189.9 16 128 16zm0 216c-57.3 0-104-46.7-104-104S70.7 24 128 24s104 46.7 104 104-46.7 104-104 104z"/></svg>