<svg id="Ebene_1" xmlns="http://www.w3.org/2000/svg" viewBox="0 0 256 256"><style>.st0,.st1{stroke-miterlimit:10}.st0{fill:none;stroke:red}.st1{stroke:url(#SVGID_1_)}</style><path d="M195.3 191.8l-14.7-14.6c-.2-.2-.4-.4-.6-.5V160c0-4.4-3.6-8-8-8h-14V98.7c0-1.7 2.1-3.5 2.5-5.1l6.3-27.8C173.1 40.5 154 16 127.9 16 101.8 16 83.2 40.3 89 65.8l6.4 27.8c.4 1.6 1.6 3.7 2.6 5.1V152H84c-4.4 0-8 3.6-8 8v16.7c-.2.1-.4.3-.6.5l-14.7 14.6c-3 3-4.7 7.1-4.7 11.3v26.6c0 5.7 4.6 10.2 10.3 10.2h123.4c5.7 0 10.3-4.6 10.3-10.2v-26.6c0-4.2-1.7-8.3-4.7-11.3zM84 160h88v16H84v-16zm108 69.8c0 1.2-1 2.2-2.3 2.2H66.3c-1.3 0-2.3-1-2.3-2.2v-26.6c0-2.1.9-4.2 2.4-5.7L79.9 184H176.1l13.5 13.5c1.5 1.5 2.4 3.6 2.4 5.7v26.6z"/></svg>