<svg id="Ebene_1" xmlns="http://www.w3.org/2000/svg" viewBox="0 0 256 256"><style>.st0,.st1{stroke-miterlimit:10}.st0{fill:none;stroke:red}.st1{stroke:url(#SVGID_1_)}</style><path d="M207.2 48.8C195.9 37.5 180 32 163 32c-28.5 0-61.9 14.7-89.1 41.9-43.7 43.7-55 103.4-25.1 133.3 11.3 11.3 26.9 16.7 44.2 16.7 28.5 0 61.9-14.6 89.1-41.8 43.7-43.8 55-103.4 25.1-133.3zm-30.8 127.6c-24.7 24.7-55.9 39.5-83.4 39.5-15.8 0-29.2-5-38.6-14.4-12.5-12.5-17.1-31.8-12.8-54.3 4.4-23.6 17.9-47.6 38-67.7C104.3 54.8 135.5 40 163 40c16 0 29.2 5 38.6 14.4 12.5 12.5 17.1 31.8 12.8 54.3-4.5 23.7-17.9 47.7-38 67.7z"/><path d="M155 81.8c-4.4 3.1-8.9 6.6-13.5 10.5-.6.5-1.1 1-1.7 1.5l-.9.8-.4.4-.1.1h-.1l-.2.2-.2.2c-.5.5-1.1 1-1.6 1.5-.6.6-1.2 1.3-1.8 1.9-2.3 2.5-4.4 5.2-6.3 8.1-1.9 2.9-3.5 6-4.9 9.1-1.4 3.1-2.5 6.1-3.5 9-1 2.9-2 5.6-3 8-1 2.5-2.1 4.8-3.4 7-1.3 2.2-2.7 4.3-4.3 6.3l-1.2 1.5-.6.7-.3.4-.2.2-.1.1s.2-.1.1 0c-1 1.1-2 2.1-3 3.2s-1.9 1.9-2.8 2.9c-.5.5-.9 1-1.4 1.4-.5.5-1 .9-1.4 1.4-1.9 1.9-3.8 3.7-5.7 5.5-1.9 1.8-3.7 3.5-5.5 5.1-1.8 1.7-3.5 3.3-5.2 4.8C68.1 186 59 194.2 59 194.2c-.6.6-.9 1.5-.5 2.3.5 1 1.7 1.5 2.7 1 0 0 .7-.3 2-1 1.3-.6 3.2-1.6 5.6-2.8 2.4-1.2 5.3-2.8 8.6-4.7 3.3-1.9 7-4 10.9-6.5 2-1.2 4-2.6 6.1-3.9 2.1-1.4 4.2-2.9 6.4-4.4 2.2-1.6 4.5-3.2 6.7-4.9.6-.4 1.1-.9 1.7-1.3.6-.5 1.2-.9 1.7-1.4 1.1-.9 2.4-1.9 3.5-2.9 1.1-.9 2.2-1.9 3.3-2.8.6-.6 1.2-1.2 1.9-1.8.6-.6 1.2-1.2 1.7-1.8 2.3-2.4 4.5-5.1 6.4-8 3.9-5.8 6.5-12.4 8.6-18.1 1-2.9 2-5.6 3-8.1s2.1-4.8 3.3-7.1c1.2-2.2 2.7-4.3 4.2-6.3l1.1-1.4c.5-.5 1-1.1 1.5-1.6l.2-.2-.1.1.1-.1.4-.4.7-.8c.5-.5.9-1 1.4-1.5 3.8-4 7.6-7.8 11.4-11.3 1.9-1.8 3.7-3.5 5.5-5.1 1.8-1.7 3.5-3.3 5.2-4.8 6.8-6.1 12.5-11.2 16.4-14.8 4-3.6 6.3-5.7 6.3-5.7.6-.6.9-1.5.5-2.3-.5-1-1.7-1.5-2.7-1 0 0-2.9 1.3-7.7 3.8-2.4 1.2-5.3 2.8-8.6 4.7-3.3 1.9-7 4-10.9 6.5-2 1.2-4 2.6-6.1 3.9-2 1.1-4.2 2.6-6.4 4.1z"/></svg>