<svg id="Ebene_1" xmlns="http://www.w3.org/2000/svg" viewBox="0 0 256 256"><style>.st0,.st1{stroke-miterlimit:10}.st0{fill:none;stroke:red}.st1{stroke:url(#SVGID_1_)}</style><path d="M182.2 108.8C174.8 98.7 161.8 92 147 92c-4 0-7.9.5-11.6 1.4.7-1.5.5-3.3-.7-4.5-1.4-1.5-3.6-1.6-5.2-.5 1.3-1.5 1.3-3.8-.1-5.3-1.5-1.6-4.1-1.7-5.7-.2-1.6 1.5-1.7 4.1-.2 5.7 1.4 1.5 3.6 1.6 5.2.5-.8.9-1.1 2.1-.9 3.2-.2-.6-.5-1.1-.9-1.6-1.5-1.6-4.1-1.7-5.7-.2-1.6 1.5-1.7 4.1-.2 5.7 1.1 1.2 2.7 1.5 4.1 1-3 1.6-5.8 3.5-8.2 5.7l.6-2.1c6-22 13.8-39 13.9-39.2.1-.3.2-.7.3-1 1.6.3 3.2.4 4.8.4 7.3 0 15-2.6 21.6-7.9 8.7-7 13.2-17.1 12.8-26.6 0-.9-.7-1.7-1.5-1.9-2.3-.6-4.6-.9-7.1-.9-7.3 0-15 2.6-21.6 7.9-5 4-8.5 9-10.6 14.4-.4-4.3-1.8-8.8-4.3-12.9-4.9-8.3-12.9-13.4-21-14.4h-.2c-.8 0-1.6.5-1.9 1.3-3 7.6-2.4 17.1 2.5 25.4 4.4 7.4 11.3 12.3 18.4 13.9-1 2.3-3.6 8.3-6.6 16.5.2-1.2-.1-2.5-1-3.5-1.5-1.6-4.1-1.7-5.7-.2-.9.9-1.3 2-1.2 3.2-.2-.5-.5-1-.9-1.5-1.5-1.6-4.1-1.7-5.7-.2-.6.6-1 1.4-1.2 2.2-1.1-1.4-2.4-2.8-3.7-4.1-8.9-8.7-20.1-13.2-30.8-13.2-2.1 0-4.1.2-6.1.5-.8.1-1.5.8-1.6 1.6-1.9 12.4 2.7 26.3 13.3 36.7 8.9 8.7 20.1 13.2 30.8 13.2 1.2 0 2.4-.1 3.5-.2-1.9 8.4-3.2 16.4-3.8 23.8-.2-2-1.9-3.5-3.9-3.5-2.2 0-4 1.8-4 4 0 2 1.5 3.7 3.4 3.9-2.1.1-3.8 1.8-3.8 4s1.8 4 4 4c1.8 0 3.3-1.2 3.8-2.8-.1 2.9 0 5.8.1 8.6-2.6-3.6-6-6.8-10.1-9.3-.6-.4-1.2-.7-1.8-1 .4.1.8.2 1.3.2 2.2 0 4-1.8 4-4s-1.8-4-4-4-4 1.8-4 4c0 1.3.6 2.5 1.6 3.2-5.1-2.6-10.6-3.9-15.8-3.9-3.9 0-7.6.7-11 2-.8.3-1.4 1.2-1.3 2.1.8 9.6 6.6 19.2 16.3 25.2 6 3.7 12.5 5.5 18.8 5.5 3.1 0 6.1-.4 9-1.3.2.8.4 1.6.7 2.4 14 45.2 41.5 62.5 42.7 63.2.7.4 1.4.6 2.1.6 1.3 0 2.6-.7 3.4-1.9 1.2-1.9.6-4.3-1.3-5.5-.1 0-6.6-4.2-14.7-13.4-7.2-8.2-16.9-22.2-23.7-42.9 3.8 1.5 7.9 2.3 12.2 2.3 4.3 0 8.9-.8 13.3-2.5 10.6-4.1 18-12.5 20.6-21.8.2-.9-.1-1.8-.9-2.3-4.8-3-10.6-4.6-16.7-4.6-4.3 0-8.9.8-13.3 2.5-1.6.6-3.1 1.3-4.5 2.1.3-1.3 0-2.7-1-3.8-1.5-1.6-4.1-1.7-5.7-.2-.2.1-.3.3-.4.5.5-1.4.3-3-.8-4.2-1.5-1.6-4.1-1.7-5.7-.2-1.6 1.5-1.7 4.1-.2 5.7.7.7 1.6 1.1 2.5 1.2-.8.1-1.7.4-2.3 1.1-.8.7-1.2 1.7-1.2 2.7-.6-11.2.7-24 3.7-38.2 7.6 8.3 19.4 13.7 32.6 13.7 14.8 0 27.8-6.7 35.2-16.8.6-.2.6-1.2.1-1.9zm-26.4-58.7c-5.6 4.5-12.4 7-19.1 7-1.1 0-2.2-.1-3.2-.2l7-5.6 6.3 2h.3c.4 0 .8-.3 1-.7.2-.5-.1-1.1-.6-1.3l-5-1.6 4.4-3.5 6.3 2.1h.3c.4 0 .8-.3.9-.7.2-.5-.1-1.1-.6-1.3l-5-1.7 4.3-3.5 6.4 2h.3c.4 0 .8-.3 1-.7.2-.5-.1-1.1-.6-1.3l-5.1-1.6 12.3-9.9c-1 7.8-5.1 15.2-11.6 20.5zm-12.3-15.2c5.6-4.5 12.4-7 19.1-7 1.2 0 2.3.1 3.5.3l-12.4 10-.5-5.3c0-.5-.5-1-1.1-.9-.6 0-1 .5-.9 1.1l.6 6.6-4.4 3.6-.4-5.4c0-.6-.5-1-1.1-.9-.6 0-1 .5-.9 1.1l.5 6.7-4.3 3.5-.5-5.4c0-.5-.5-1-1.1-.9-.6 0-1 .5-.9 1.1l.6 6.7-7 5.6c.5-7.7 4.6-15.2 11.2-20.5zm-20.9.4c3.5 6 4.7 12.9 3.2 19l-4.8-8.1 2.3-4.9c.2-.5 0-1.1-.5-1.3-.5-.2-1.1 0-1.3.5l-1.8 3.7-2-3.4L120 36c.2-.5 0-1.1-.5-1.3-.5-.2-1.1 0-1.3.5l-1.8 3.6-2-3.4 2.3-4.8c.2-.5 0-1.1-.5-1.3-.5-.2-1.1 0-1.3.5l-1.7 3.6-5.7-9.7c6.2 1.4 11.6 5.6 15.1 11.6zm-13.7 8.1c-3.6-6.1-4.7-13.1-3.1-19.3l5.8 9.9-3.7-.2c-.5 0-1 .4-1 1s.4 1 1 1l5 .2 2 3.4-3.6-.2c-.5 0-1 .4-1.1.9 0 .6.4 1 .9 1.1l5 .3 1.9 3.3-3.6-.2c-.5 0-1 .4-1 1s.4 1 1 1l4.9.2 5 8.5c-6.3-1.5-11.8-5.8-15.4-11.9zm18 53c1-.9 1.4-2.3 1.2-3.5.2.6.5 1.1.9 1.6.3.3.7.6 1 .8-1.2.5-2.4 1-3.5 1.5.1-.2.2-.3.4-.4zM147 96c12 0 23.1 4.8 30.2 13h-15.3l3-4.4c.3-.5.2-1.1-.3-1.4-.5-.3-1.1-.2-1.4.3l-3.7 5.6H154l2.9-4.5c.3-.5.2-1.1-.3-1.4-.5-.3-1.1-.2-1.4.3l-3.6 5.5h-5.7l3-4.4c.3-.5.2-1.1-.3-1.4-.5-.3-1.1-.2-1.4.3l-3.7 5.6h-5.7l3-4.4c.3-.5.2-1.1-.3-1.4-.5-.3-1.1-.2-1.4.3l-3.8 5.6h-5.5l3-4.4c.3-.5.2-1.1-.3-1.4-.5-.3-1.1-.2-1.4.3l-3.7 5.6h-10.7C123.9 100.8 135 96 147 96zm-30.9-17.9c.3-.3.6-.7.8-1.1-.7 2-1.4 4.1-2.2 6.3.2-1.2-.1-2.4-1-3.4-.3-.4-.7-.6-1.2-.8 1.2.2 2.6-.1 3.6-1zm-5.7-.2c.3.4.7.6 1.2.8-1-.2-2-.1-2.9.5.7-.8.9-1.8.9-2.8.1.6.4 1.1.8 1.5zm-2.7 2.3c-1.2 1.5-1.2 3.8.2 5.2 1.5 1.6 4.1 1.7 5.7.2.3-.3.6-.7.8-1-1.1 3.4-2.3 7.1-3.4 11-1-5.1-3-10.2-5.9-14.9.8.1 1.7 0 2.6-.5zM67.1 62.7c10 0 20.2 4.4 28 12 8.7 8.5 13.2 19.8 12.4 30.7l-7.7-7.6 1.3-6.7c.1-.5-.3-1.1-.8-1.2-.5-.1-1.1.3-1.2.8l-1 5.4-4-4 1.3-6.6c.1-.5-.2-1.1-.8-1.2-.5-.1-1.1.2-1.2.8l-1.1 5.3-3.9-3.9 1.3-6.6c.1-.5-.3-1.1-.8-1.2-.5-.1-1.1.3-1.2.8l-1 5.3-3.9-3.8 1.2-6.7c.1-.5-.3-1.1-.8-1.2-.5-.1-1.1.3-1.2.8l-1 5.3-4-4 1.2-6.6c.1-.5-.3-1.1-.8-1.2-.5-.1-1.1.3-1.2.8l-1 5.2-10.7-10.5c.8-.1 1.7-.2 2.6-.2zm8.4 32C67 86.3 62.4 75.1 63.1 64.4L73.9 75l-5.2 1.1c-.5.1-.9.6-.8 1.2.1.5.5.8 1 .8h.2l6.5-1.4 3.9 3.9-5.2 1.1c-.5.1-.9.7-.8 1.2.1.5.5.8 1 .8h.2l6.4-1.4 4 4-5.2 1.1c-.5.1-.9.6-.8 1.2.1.5.5.8 1 .8h.2l6.5-1.4 4 4-5.2 1c-.5.1-.9.6-.8 1.2.1.5.5.8 1 .8h.2l6.5-1.3 3.9 3.9-5.1 1.1c-.5.1-.9.6-.8 1.2.1.5.5.8 1 .8h.2l6.4-1.3 7.6 7.5c-.8.1-1.6.1-2.4.1-9.8-.2-20-4.6-27.8-12.3zm23.9 44.2c1.7-.1 3.1-1.2 3.6-2.8-.2 1.9-.3 3.9-.3 5.7-.4-1.5-1.7-2.7-3.3-2.9zm-25.5 2.9c5.7 0 11.5 1.7 16.7 4.9 6.6 4.1 11.3 10.1 13.4 16.8.1.8.3 1.7.4 2.5l-7.8-4.9-.2-6.7c0-.6-.5-1-1-1-.6 0-1 .5-1 1l.1 5.4-4.7-2.9-.2-6.8c0-.6-.5-1-1-1-.6 0-1 .5-1 1l.2 5.4-4.8-3-.2-6.8c0-.6-.5-1-1-1-.6 0-1 .5-1 1l.1 5.5-14-8.7c2.2-.4 4.5-.7 7-.7zm6 21.9c-7.3-4.6-12.4-11.6-14-19.2l13.7 8.5-4.8 2.1c-.5.2-.7.8-.5 1.3.2.4.5.6.9.6.1 0 .3 0 .4-.1l6-2.7 4.7 2.9-4.8 2.2c-.5.2-.7.8-.5 1.3.2.4.5.6.9.6.1 0 .3 0 .4-.1l6-2.7 4.8 3-4.9 2.2c-.5.2-.7.8-.5 1.3.2.4.5.6.9.6.1 0 .3 0 .4-.1l6.1-2.7 7.9 4.9c-2.2.6-4.4.8-6.7.8-5.5.2-11.2-1.5-16.4-4.7zm58.8 6.2c-3.8 1.5-7.8 2.3-11.8 2.3-4.1 0-8.1-.8-11.6-2.4l8.7-3.5 5.2 3.9c.2.1.4.2.6.2.3 0 .6-.1.8-.4.3-.4.2-1.1-.2-1.4l-4.2-3.1 5-2 5.5 4c.2.1.4.2.6.2.3 0 .6-.1.8-.4.3-.4.2-1.1-.2-1.4l-4.5-3.3 5.2-2.1 5.7 4.2c.2.1.4.2.6.2.3 0 .6-.1.8-.4.3-.4.2-1.1-.2-1.4l-4.7-3.5 15.2-6.1c-3 7.3-9.2 13.2-17.3 16.4zm-7.3-18.6c3.8-1.5 7.8-2.3 11.8-2.3 4.3 0 8.5.9 12.1 2.6l-14.8 5.9 1.1-4.7c.1-.5-.2-1.1-.7-1.2-.5-.1-1.1.2-1.2.7l-1.5 6.1-5.3 2.1 1.2-5c.1-.5-.2-1.1-.7-1.2-.5-.1-1.1.2-1.2.7l-1.5 6.3-5.4 2.1 1.3-5.3c.1-.5-.2-1.1-.7-1.2-.5-.1-1.1.2-1.2.7l-1.6 6.7-9.1 3.6c2.8-7.2 9.2-13.4 17.4-16.6zm-13.5-4c-.4 1.1-.3 2.3.2 3.3-.1-.2-.3-.4-.5-.6-.7-.7-1.6-1.1-2.5-1.2.8-.1 1.7-.4 2.3-1.1.2-.1.3-.3.5-.4zm-6.1 8.2c1.5 1.6 4.1 1.7 5.7.2 1.3-1.3 1.6-3.3.7-4.8.1.2.3.4.5.6.6.7 1.4 1 2.3 1.2-3.8 2.9-6.9 6.5-9 10.5-.5-3-.9-6.3-1.1-9.6 0 .6.4 1.3.9 1.9zM147 124c-12 0-23.1-4.8-30.2-13h10.7l3.7 5.6c.2.3.5.4.8.4.2 0 .4-.1.6-.2.5-.3.6-.9.3-1.4l-3-4.4h5.7l3.6 5.5c.2.3.5.5.8.5.2 0 .4-.1.5-.2.5-.3.6-.9.3-1.4l-2.9-4.5h5.5l3.7 5.6c.2.3.5.4.8.4.2 0 .4-.1.6-.2.5-.3.6-.9.3-1.4l-3-4.4h5.5l3.8 5.6c.2.3.5.4.8.4.2 0 .4-.1.6-.2.5-.3.6-.9.3-1.4l-3-4.4h5.7l3.7 5.6c.2.3.5.4.8.4.2 0 .4-.1.6-.2.5-.3.6-.9.3-1.4l-3-4.4h15.3C170.1 119.2 159 124 147 124z"/></svg>