<svg id="Ebene_1" xmlns="http://www.w3.org/2000/svg" viewBox="0 0 256 256"><style>.st0,.st1{stroke-miterlimit:10}.st0{fill:none;stroke:red}.st1{stroke:url(#SVGID_1_)}</style><path d="M216 104c0-8.8-7.2-16-16-16-3.7 0-7.2 1.3-9.9 3.5 9.6 4.4 18.4 9.2 25.9 13.7V104zM238.5 125.5c-.4-.3-.8-.6-1.3-1-.9-.7-2-1.5-3.2-2.4-.6-.4-1.2-.9-1.9-1.4-18.5-13.4-61.9-40.7-104-40.7h-.1c-39.3 0-85.3 23.9-105.2 38-7.5 5.3-9 17.4-3.4 23l77.4 93.2c1.5 1.8 3.7 2.8 6.1 2.8h50.5c1.2 0 2.4-.6 3.1-1.5l82.6-104.4c1.4-1.7 1.1-4.2-.6-5.6zM102.9 229l-77.3-93.1c-.2-.2-.3-.4-.5-.5-.8-.8-1.2-2.5-1-4.4.2-2.7 1.5-5.1 3.4-6.4C48.2 109.9 92.1 88 128 88h.1c19.3 0 41.2 6.1 65 18.2 17.4 8.8 31 18.5 37.3 23.1L151.5 229h-48.6z"/><path d="M125.1 216h-.3c-.3 0-.6.1-.7.4l-4.1 6.2c-.4.6 0 1.4.7 1.4h.3c.3 0 .6-.1.7-.4l4.1-6.2c.4-.6 0-1.4-.7-1.4zM130.1 216h-.3c-.3 0-.6.1-.7.4l-4.1 6.2c-.4.6 0 1.4.7 1.4h.3c.3 0 .6-.1.7-.4l4.1-6.2c.4-.6 0-1.4-.7-1.4zM135.1 216h-.3c-.3 0-.6.1-.7.4l-4.1 6.2c-.4.6 0 1.4.7 1.4h.3c.3 0 .6-.1.7-.4l4.1-6.2c.4-.6 0-1.4-.7-1.4zM140.1 216h-.3c-.3 0-.6.1-.7.4l-4.1 6.2c-.4.6 0 1.4.7 1.4h.3c.3 0 .6-.1.7-.4l4.1-6.2c.4-.6 0-1.4-.7-1.4zM107.3 214l-.2-.2c-.4-.5-1.1-.4-1.4.1l-3.7 5.6c-.2.3-.2.8.1 1.1l.2.2c.4.5 1.1.4 1.4-.1l3.7-5.6c.2-.4.2-.8-.1-1.1zM115.1 216h-.3c-.3 0-.6.1-.7.4l-4.1 6.2c-.4.6 0 1.4.7 1.4h.3c.3 0 .6-.1.7-.4l4.1-6.2c.4-.6 0-1.4-.7-1.4zM110.1 216h-.3c-.3 0-.6.1-.7.4l-4.1 6.2c-.4.6 0 1.4.7 1.4h.3c.3 0 .6-.1.7-.4l4.1-6.2c.4-.6 0-1.4-.7-1.4zM120.1 216h-.3c-.3 0-.6.1-.7.4l-4.1 6.2c-.4.6 0 1.4.7 1.4h.3c.3 0 .6-.1.7-.4l4.1-6.2c.4-.6 0-1.4-.7-1.4zM145.1 216h-.3c-.3 0-.6.1-.7.4l-4.1 6.2c-.4.6 0 1.4.7 1.4h.3c.3 0 .6-.1.7-.4l4.1-6.2c.4-.6 0-1.4-.7-1.4zM104.5 210.7l-.2-.2c-.4-.5-1.1-.4-1.4.1l-3.7 5.6c-.2.3-.2.8.1 1.1l.2.2c.4.5 1.1.4 1.4-.1l3.7-5.6c.2-.4.2-.8-.1-1.1zM85 187.2l-.2-.2c-.4-.5-1.1-.4-1.4.1l-3.7 5.6c-.2.3-.2.8.1 1.1l.2.2c.4.5 1.1.4 1.4-.1l3.7-5.6c.2-.4.2-.8-.1-1.1zM87.8 190.5l-.2-.2c-.4-.5-1.1-.4-1.4.1l-3.7 5.6c-.2.3-.2.8.1 1.1l.2.2c.4.5 1.1.4 1.4-.1l3.7-5.6c.2-.3.2-.8-.1-1.1zM90.6 193.9l-.2-.2c-.4-.5-1.1-.4-1.4.1l-3.7 5.6c-.2.3-.2.8.1 1.1l.2.2c.4.5 1.1.4 1.4-.1l3.7-5.6c.2-.4.2-.8-.1-1.1zM93.4 197.2l-.2-.2c-.4-.5-1.1-.4-1.4.1l-3.7 5.6c-.2.3-.2.8.1 1.1l.2.2c.4.5 1.1.4 1.4-.1l3.7-5.6c.2-.3.1-.8-.1-1.1zM73.9 173.8l-.2-.2c-.4-.5-1.1-.4-1.4.1l-3.7 5.6c-.2.3-.2.8.1 1.1l.2.2c.4.5 1.1.4 1.4-.1l3.7-5.6c.2-.4.1-.8-.1-1.1zM76.7 177.1l-.2-.2c-.4-.5-1.1-.4-1.4.1l-3.7 5.6c-.2.3-.2.8.1 1.1l.2.2c.4.5 1.1.4 1.4-.1l3.7-5.6c.1-.4.1-.8-.1-1.1zM79.5 180.5l-.2-.2c-.4-.5-1.1-.4-1.4.1l-3.7 5.6c-.2.3-.2.8.1 1.1l.2.2c.4.5 1.1.4 1.4-.1l3.7-5.6c.1-.4.1-.8-.1-1.1zM82.2 183.8l-.2-.2c-.4-.5-1.1-.4-1.4.1l-3.7 5.6c-.2.3-.2.8.1 1.1l.2.2c.4.5 1.1.4 1.4-.1l3.7-5.6c.2-.4.2-.8-.1-1.1zM96.2 200.6l-.2-.2c-.4-.5-1.1-.4-1.4.1l-3.7 5.6c-.2.3-.2.8.1 1.1l.2.2c.4.5 1.1.4 1.4-.1l3.7-5.6c.1-.4.1-.8-.1-1.1zM99 203.9l-.2-.2c-.4-.5-1.1-.4-1.4.1l-3.7 5.6c-.2.3-.2.8.1 1.1l.2.2c.4.5 1.1.4 1.4-.1L99 205c.2-.3.2-.8 0-1.1zM101.7 207.3l-.2-.2c-.4-.5-1.1-.4-1.4.1l-3.7 5.6c-.2.3-.2.8.1 1.1l.2.2c.4.5 1.1.4 1.4-.1l3.7-5.6c.2-.4.2-.8-.1-1.1zM71.1 170.4l-.2-.2c-.4-.5-1.1-.4-1.4.1l-3.7 5.6c-.2.3-.2.8.1 1.1l.2.2c.4.5 1.1.4 1.4-.1l3.7-5.6c.2-.4.2-.8-.1-1.1zM65.5 163.7l-.2-.2c-.4-.5-1.1-.4-1.4.1l-3.7 5.6c-.2.3-.2.8.1 1.1l.2.2c.4.5 1.1.4 1.4-.1l3.7-5.6c.2-.4.2-.8-.1-1.1zM68.3 167l-.2-.2c-.4-.5-1.1-.4-1.4.1l-3.7 5.6c-.2.3-.2.8.1 1.1l.2.2c.4.5 1.1.4 1.4-.1l3.7-5.6c.2-.3.2-.8-.1-1.1zM62.7 160.3l-.2-.2c-.4-.5-1.1-.4-1.4.1l-3.7 5.6c-.2.3-.2.8.1 1.1l.2.2c.4.5 1.1.4 1.4-.1l3.7-5.6c.2-.3.2-.8-.1-1.1zM43.2 136.9l-.2-.2c-.4-.5-1.1-.4-1.4.1l-3.7 5.6c-.2.3-.2.8.1 1.1l.2.2c.4.5 1.1.4 1.4-.1l3.7-5.6c.2-.4.2-.8-.1-1.1zM46 140.2l-.2-.2c-.4-.5-1.1-.4-1.4.1l-3.7 5.6c-.2.3-.2.8.1 1.1l.2.2c.4.5 1.1.4 1.4-.1l3.7-5.6c.2-.4.2-.8-.1-1.1zM48.8 143.6l-.2-.2c-.4-.5-1.1-.4-1.4.1l-3.7 5.6c-.2.3-.2.8.1 1.1l.2.2c.4.5 1.1.4 1.4-.1l3.7-5.6c.2-.4.2-.8-.1-1.1zM51.6 146.9l-.2-.2c-.4-.5-1.1-.4-1.4.1l-3.7 5.6c-.2.3-.2.8.1 1.1l.2.2c.4.5 1.1.4 1.4-.1l3.7-5.6c.2-.4.2-.8-.1-1.1zM40.5 133.5l-.2-.2c-.4-.5-1.1-.4-1.4.1l-3.7 5.6c-.2.3-.2.8.1 1.1l.2.2c.4.5 1.1.4 1.4-.1l3.7-5.6c.1-.4.1-.8-.1-1.1zM54.4 150.3l-.2-.2c-.4-.5-1.1-.4-1.4.1l-3.7 5.6c-.2.3-.2.8.1 1.1l.2.2c.4.5 1.1.4 1.4-.1l3.7-5.6c.2-.4.1-.8-.1-1.1zM57.2 153.6l-.2-.2c-.4-.5-1.1-.4-1.4.1l-3.7 5.6c-.2.3-.2.8.1 1.1l.2.2c.4.5 1.1.4 1.4-.1l3.7-5.6c.1-.3.1-.8-.1-1.1zM60 157l-.2-.2c-.4-.5-1.1-.4-1.4.1l-3.7 5.6c-.2.3-.2.8.1 1.1l.2.2c.4.5 1.1.4 1.4-.1L60 158c.2-.3.2-.7 0-1zM150.1 216h-.3c-.3 0-.6.1-.7.4l-4.1 6.2c-.4.6 0 1.4.7 1.4h.3c.3 0 .6-.1.7-.4l4.1-6.2c.4-.6 0-1.4-.7-1.4zM37.6 130.2l-.2-.2c-.4-.5-1.1-.4-1.4.1l-3.7 5.6c-.2.3-.2.8.1 1.1l.2.2c.4.5 1.1.4 1.4-.1l3.7-5.6c.2-.3.2-.8-.1-1.1z"/></svg>