<svg id="Ebene_1" xmlns="http://www.w3.org/2000/svg" viewBox="0 0 256 256"><style>.st0,.st1{stroke-miterlimit:10}.st0{fill:none;stroke:red}.st1{stroke:url(#SVGID_1_)}</style><path d="M240 88V48c0-17.7-14.3-32-32-32H48c-17.7 0-32 14.3-32 32v40c0 17.7 14.3 32 32 32h8.5c0 .3 0 .6.1 1l23.3 95H24c-4.4 0-8 3.6-8 8v12c0 2.2 1.8 4 4 4h216c2.2 0 4-1.8 4-4v-12c0-4.4-3.6-8-8-8h-55.9l23.8-95c.1-.3.1-.6.1-1h8c17.7 0 32-14.3 32-32zM24 88V48c0-13.2 10.8-24 24-24h160c13.2 0 24 10.8 24 24v40c0 13.2-10.8 24-24 24H48c-13.2 0-24-10.8-24-24zm120 53.4l-10 .6c-3.3 0-6 2.7-6 6s2.7 6 6 6l10 .6v5.4h-32v-24h32v5.4zm26 2.6c.7.3 2 2.4 2 4s-1.3 3.7-2 4l-35.7-2H134c-1.1 0-2-.9-2-2s.9-2 2-2h.2l35.8-2zm-26-16H98v-8h60v8h-14zm88 104H24v-8h208v8zm-63.9-17c-.1.3-.1.6-.1 1H88c0-.3 0-.6-.1-1l-23.3-95H90v12c0 2.2 1.8 4 4 4h10v24c0 4.4 3.6 8 8 8h32c4.4 0 8-3.6 8-8v-5l18 1c3.3 0 6-4.7 6-8s-2.7-8-6-8l-18 1v-5h10c2.2 0 4-1.8 4-4v-12h25.9l-23.8 95z"/><path d="M128 104c17.7 0 32-14.3 32-32s-14.3-32-32-32-32 14.3-32 32 14.3 32 32 32zm0-56c13.2 0 24 10.8 24 24s-10.8 24-24 24-24-10.8-24-24 10.8-24 24-24z"/><path d="M128 63c1.1 0 2-.9 2-2v-4c0-1.1-.9-2-2-2s-2 .9-2 2v4c0 1.1.9 2 2 2zM137 72c0 1.1.9 2 2 2h4c1.1 0 2-.9 2-2s-.9-2-2-2h-4c-1.1 0-2 .9-2 2zM113 74h4c1.1 0 2-.9 2-2s-.9-2-2-2h-4c-1.1 0-2 .9-2 2s.9 2 2 2zM118.6 65.5c.4.4.9.6 1.4.6s1-.2 1.4-.6c.8-.8.8-2 0-2.8l-2.8-2.8c-.8-.8-2-.8-2.8 0-.8.8-.8 2 0 2.8l2.8 2.8zM137.4 78.5c-.8-.8-2-.8-2.8 0-.8.8-.8 2 0 2.8l2.8 2.8c.4.4.9.6 1.4.6s1-.2 1.4-.6c.8-.8.8-2 0-2.8l-2.8-2.8zM118.6 78.5l-2.8 2.8c-.8.8-.8 2 0 2.8.4.4.9.6 1.4.6s1-.2 1.4-.6l2.8-2.8c.8-.8.8-2 0-2.8-.7-.7-2-.7-2.8 0zM128 76c2.2 0 4-1.8 4-4 0-.4-.1-.7-.1-1l8.3-8.3c.8-.8.8-2 0-2.8-.8-.8-2-.8-2.8 0l-8.3 8.3c-.3-.1-.7-.1-1-.1-2.2 0-4 1.8-4 4-.1 2.1 1.7 3.9 3.9 3.9zM180 80h8c2.2 0 4-1.8 4-4v-8c0-2.2-1.8-4-4-4h-8c-2.2 0-4 1.8-4 4v8c0 2.2 1.8 4 4 4zm0-8h8v4h-8v-4zM204 80h8c2.2 0 4-1.8 4-4v-8c0-2.2-1.8-4-4-4h-8c-2.2 0-4 1.8-4 4v8c0 2.2 1.8 4 4 4zm0-12h8v4h-8v-4zM128 176s-8 7.6-8 12 3.6 8 8 8 8-3.6 8-8-8-12-8-12z"/></svg>