<svg id="Ebene_1" xmlns="http://www.w3.org/2000/svg" viewBox="0 0 256 256"><style>.st0,.st1{stroke-miterlimit:10}.st0{fill:none;stroke:red}.st1{stroke:url(#SVGID_1_)}</style><path d="M168.3 161.2c-.2-.8-.5-1.5-1.1-2l-7.1-7.1h3.9c2.2 0 4-1.8 4-4v-12c0-2.2-1.8-4-4-4h3.1c.6 0 1.2-.1 1.8-.4l5.2-2.6c1.2-.6 2.1-1.8 2.2-3.2l7.4-74.4c.2-2-1.1-3.8-3-4.3l-44.1-11c-.3-.1-.6-.1-1-.1h-15.1c-.3 0-.7 0-1 .1l-44.1 11c-1.9.5-3.2 2.3-3 4.3l7.4 74.4c.1 1.4 1 2.6 2.2 3.2l5.2 2.6c.6.3 1.2.4 1.8.4h3c-2.2 0-4 1.8-4 4v12c0 2.2 1.8 4 4 4h3.9l-7.1 7.1c-.6.6-.9 1.3-1.1 2l-14.8 74c-.5 2.5 1.4 4.8 3.9 4.8h102.4c2.5 0 4.4-2.3 3.9-4.8l-14.8-74zm.2-38.4l-2.4 1.2H146l7.9-75.3 21.4 5.3-6.8 68.8zM120.9 44h14.2l14.9 3.7v.1l-8 76v.2h-28v-.2l-8-76v-.1l14.9-3.7zm-31 80l-2.4-1.2L80.6 54l21.4-5.3 8 75.3H89.9zm2.1 24v-12h72v12H92zm50 12.1l8 71.9h-44l8.7-71.9v-.1l27.3.1c0-.1 0-.1 0 0zm-46.7 3.8l3.9-3.9h11.5l-8.7 72H81.7l13.6-68.1zM154 232v-.5l-8-71.5h10.7l3.9 3.9 13.6 68.1H154zM136 32l2-12.1-10-3.9-10 4 1.9 12zM45.2 66.1c1-1.2 2.8-1.3 4.8-.8l20.9 10.8-2.4-24.3c-.3-1.6-1.5-2.8-3-2.8H57c-.5 0-1.2.4-1.7.2l-8.8-3.5c-1.5-.6-3.1-.2-4.3.9L18 70.2c-1 1.2-1 3.2-.9 4.5l29.8 66.8c.6 1.4 2.1 2.5 4.1 2.5h14c1.9-.2 4.2-1.7 4-4v-5c-.1-1.6-2-3.3-3.5-3.8l-6.7-2.2c-1.6-.5-2.7-2.1-2.7-3.8v-7.8c0-.8-.2-1.6-.7-2.2L48.6 105c-.4-.6-.7-1.4-.7-2.1L48 89c0-.6-.4-1.3-.7-2L41 74c-.3-1.8.2-3.1 1-4l3.2-3.9z"/><path d="M213.6 58.3l-13.4-4.2c-.4-.1-.8-.2-1.2-.2h-8c-2.1 0-3.8 1.6-4 3.6l-3.7 37.2 23.5-29.5c.5-.9 1.3-1.5 2.3-1.8l4.5-1.4c1.9-.4 1.9-3.1 0-3.7z"/></svg>