<svg id="Ebene_1" xmlns="http://www.w3.org/2000/svg" viewBox="0 0 256 256"><style>.st0,.st1{stroke-miterlimit:10}.st0{fill:none;stroke:red}.st1{stroke:url(#SVGID_1_)}</style><path d="M232.1 236c0-.2 0-.5-.1-.7V20.6c0-2.2-1.8-4-4-4h-.5l-63 7.4H60.1c-2.4 0-4.3 2.1-4 4.5C58.2 44.3 74.6 96 88 96h48c6.6 0 14.1-12.6 20.2-27.2 44.2 37.1 39.1 109.6 32.9 147.2H52c-2.2 0-4 1.8-4 4v16c0 2.2 1.8 4 4 4h176c1.6 0 3.1-1 3.7-2.4.2-.5.4-1 .4-1.6zM135.5 88h-47c-1.8-1.1-7.3-7.2-14.3-25.4-4.4-11.3-7.8-23-9.4-30.6h94.8c-1.6 7.5-5.1 19.2-9.6 30.6-7.1 18.2-12.7 24.4-14.5 25.4zM186 232H56v-8h131.6c-.6 3.1-1.1 5.7-1.6 8zm8.1 0c3.2-14.7 8.2-43.5 6.8-74.4-.9-20-4.4-37.9-10.4-53.2-7-17.9-17.4-32.5-31.1-43.4l9.9-29.6L224 25v207h-29.9z"/><path d="M60.3 111.7c.2.1.4.2.7.2-6.4 8.4-13 23.1-13 48.1 0 32.3 3.7 42.9 6.1 46.3.7 1.1 2 1.7 3.3 1.7h108.5c1.7 0 3.3-1.1 3.8-2.7 1.5-4.4 2.4-15.8 2.4-45.3 0-23.8-6.4-38.3-12.9-46.9l8.3-7.7c1.3-1.3.4-3.4-1.4-3.4H77s-11.2-2.2-21-6c-4.4-1.7-6.5-3.5-7.4-4.9-1-1.6-3.1-2.3-4.9-1.5C35 93.2 16 104 16 128c0 22.7 8.5 43.3 13.1 52.7 1.3 2.6 4.9 3 6.7.7L39 178c1.1-1.3 1.2-3.2.3-4.6C35.8 167.9 28 152.9 28 128c0-29.2 27.3-18.4 32.3-16.3zM162.6 200H59.8c-1.4-3.7-3.8-13.9-3.8-40 0-26.5 7.8-39.8 13.5-46h79.7c6.1 6 14.7 19.3 14.7 46 .1 20.5-.4 33.9-1.3 40z"/><path d="M147.1 150.9l-12.6 1.6c-.8.1-1.7.1-2.5 0l-21.9-2.7-21.7-2.7c-.8-.1-1.7-.1-2.5 0L70.4 149c-3.7.5-6.4 2.9-6.4 5.7v10c.2 14.1 1.1 22.5 2 27.3h89.3c.3-5.3.6-13.9.6-27.7v-7.7c.1-3.5-4.2-6.3-8.8-5.7zM218 160c0-.6-.4-1-1-1h-6c0-.6 0-1.2-.1-1.9-.2-4.1-.5-8.2-.9-12.1h6c.6 0 1-.4 1-1s-.4-1-1-1h-6.2c-.5-4.8-1.2-9.5-2-14h6.3c.6 0 1-.4 1-1s-.4-1-1-1h-6.6c-.9-4.8-2.1-9.5-3.4-14h6c.6 0 1-.4 1-1s-.4-1-1-1h-6.6c-1.5-4.9-3.2-9.5-5.1-14h5.7c.6 0 1-.4 1-1s-.4-1-1-1h-6.5c-2.2-4.9-4.6-9.6-7.3-14h5.9c.6 0 1-.4 1-1s-.4-1-1-1h-7.1c-3.2-5-6.8-9.7-10.7-14h5.8c.6 0 1-.4 1-1s-.4-1-1-1h-7.7c-2-2.1-4.1-4.1-6.3-6.1-.8-.7-2.1-.7-2.8.2-.7.8-.7 2.1.2 2.8 24.2 21.5 37.5 54.2 39.5 97.4 1.2 25.9-2 50.4-5 66.3-.2 1.1.5 2.1 1.6 2.3h.4c.9 0 1.8-.7 2-1.6.8-4.5 1.7-9.7 2.4-15.4h5.7c.6 0 1-.4 1-1s-.4-1-1-1h-5.4c.6-4.4 1.1-9.1 1.5-14h5.9c.6 0 1-.4 1-1s-.4-1-1-1h-5.7c.4-4.5.6-9.2.8-14h6c.6 0 1-.4 1-1s-.4-1-1-1h-5.9c.1-4.6.1-9.3 0-14h6c.2.1.6-.3.6-.9z"/></svg>